<svg class="svg-icon" style="width: 1em; height: 1em;vertical-align: middle;fill: currentColor;overflow: hidden;" viewBox="0 0 1024 1024" version="1.1" xmlns="http://www.w3.org/2000/svg"><path d="M213.333333 42.666667c0 115.2 66.56 220.16 170.666667 269.653333V938.666667h85.333333v-298.666667h85.333334v298.666667h85.333333V311.893333C744.106667 262.826667 810.666667 157.866667 810.666667 42.666667h-85.333334a213.333333 213.333333 0 0 1-213.333333 213.333333 213.333333 213.333333 0 0 1-213.333333-213.333333m213.333333 0c-47.36 0-85.333333 37.973333-85.333333 85.333333 0 47.36 37.973333 85.333333 85.333333 85.333333 47.36 0 85.333333-37.973333 85.333333-85.333333 0-47.36-37.973333-85.333333-85.333333-85.333333z" fill="" /></svg>