<?xml version="1.0" encoding="utf-8"?>
<!-- Uploaded to SVGRepo https://www.svgrepo.com -->
<svg version="1.1" id="Layer_1" xmlns="http://www.w3.org/2000/svg" xmlns:xlink="http://www.w3.org/1999/xlink" x="0px" y="0px"
	 width="210px" height="256px" viewBox="0 0 210 256" enable-background="new 0 0 210 256" xml:space="preserve">
<path d="M174.55,144.5L174.55,144.5c-1.4-4-5-6.5-9.2-6.5H159V23c0-11.708-9.292-21-21-21H25C12.57,2,2,12.57,2,25v183
	c0,11.9,10.95,22,22.75,22l114.213,0c1.207,0,2.27,0.984,2.18,2.188c-0.095,1.266-1.153,1.812-2.393,1.812h-45.5L128,254h80
	L174.55,144.5z M82.05,220.2c-3.199,0-5.599-2.399-5.6-5.598c-0.001-3.045,2.557-5.602,5.602-5.602
	c3.199,0.001,5.598,2.401,5.598,5.6C87.55,217.8,85.25,220.2,82.05,220.2z M144,138h-19.65c-5.3,0-9.8,4.7-9.8,10l0,0
	c0,5.3,4.5,10,9.8,10h19.8v42H18V31h126V138z M127.157,98.447l-13.412-44.651H83.13v-5.54c0-1.499-1.499-3.041-3.041-3.041
	c-1.499,0-3.041,1.499-3.041,3.041v5.581H46.434l-13.412,44.61h-0.292h-1.499c0,10.122,8.206,18.369,18.369,18.369
	s18.369-8.205,18.369-18.369h-1.749h-0.292L53.265,56.586h24.033v65.144H53.515v9.33h3.041H80.09h23.534h3.041v-9.33H82.88V56.586
	h24.033L94.251,98.447H93.96H92.21c0,10.122,8.205,18.369,18.369,18.369s18.369-8.205,18.369-18.369h-1.499H127.157L127.157,98.447z
	 M61.763,98.447H37.438l12.038-40.611L61.763,98.447z M98.417,98.447l12.287-40.611l12.038,40.611H98.417z"/>
</svg>
